<?xml version="1.0" encoding="UTF-8" standalone="no"?>
<!DOCTYPE svg PUBLIC "-//W3C//DTD SVG 1.1//EN"
 "http://www.w3.org/Graphics/SVG/1.1/DTD/svg11.dtd">
<!-- Generated by graphviz version 5.0.0 (20220707.1540)
 -->
<!-- Pages: 1 -->
<svg width="416pt" height="332pt"
 viewBox="0.00 0.00 415.55 332.00" xmlns="http://www.w3.org/2000/svg" xmlns:xlink="http://www.w3.org/1999/xlink">
<g id="graph0" class="graph" transform="scale(1 1) rotate(0) translate(4 328)">
<polygon fill="white" stroke="transparent" points="-4,4 -4,-328 411.55,-328 411.55,4 -4,4"/>
<!-- 1. on ship -->
<g id="node1" class="node">
<title>1. on ship</title>
<ellipse fill="none" stroke="black" cx="139" cy="-306" rx="46.29" ry="18"/>
<text text-anchor="middle" x="139" y="-302.3" font-family="Times,serif" font-size="14.00">1. on ship</text>
</g>
<!-- 2. cliff -->
<g id="node2" class="node">
<title>2. cliff</title>
<ellipse fill="none" stroke="black" cx="79" cy="-234" rx="34.39" ry="18"/>
<text text-anchor="middle" x="79" y="-230.3" font-family="Times,serif" font-size="14.00">2. cliff</text>
</g>
<!-- 1. on ship&#45;&gt;2. cliff -->
<g id="edge1" class="edge">
<title>1. on ship&#45;&gt;2. cliff</title>
<path fill="none" stroke="black" d="M119.96,-289.46C111.49,-280.78 101.78,-269.75 93.84,-259.89"/>
<polygon fill="black" stroke="black" points="96.57,-257.7 87.66,-251.96 91.05,-262 96.57,-257.7"/>
</g>
<!-- 3. cave entrance -->
<g id="node5" class="node">
<title>3. cave entrance</title>
<ellipse fill="none" stroke="black" cx="200" cy="-234" rx="68.49" ry="18"/>
<text text-anchor="middle" x="200" y="-230.3" font-family="Times,serif" font-size="14.00">3. cave entrance</text>
</g>
<!-- 1. on ship&#45;&gt;3. cave entrance -->
<g id="edge2" class="edge">
<title>1. on ship&#45;&gt;3. cave entrance</title>
<path fill="none" stroke="black" d="M147.89,-288.05C154.63,-279.24 163.96,-268.33 172.93,-258.69"/>
<polygon fill="black" stroke="black" points="175.61,-260.96 179.98,-251.31 170.54,-256.12 175.61,-260.96"/>
</g>
<!-- 2. cliff&#45;&gt;1. on ship -->
<g id="edge3" class="edge">
<title>2. cliff&#45;&gt;1. on ship</title>
<path fill="none" stroke="black" d="M96.95,-249.42C105.68,-258.28 115.91,-269.86 124.19,-280.15"/>
<polygon fill="black" stroke="black" points="121.45,-282.32 130.35,-288.05 126.97,-278.02 121.45,-282.32"/>
</g>
<!-- _u.2 -->
<g id="node3" class="node">
<title>_u.2</title>
<ellipse fill="none" stroke="black" cx="27" cy="-162" rx="27" ry="18"/>
<text text-anchor="middle" x="27" y="-158.3" font-family="Times,serif" font-size="14.00">_u.2</text>
</g>
<!-- 2. cliff&#45;&gt;_u.2 -->
<g id="edge4" class="edge">
<title>2. cliff&#45;&gt;_u.2</title>
<path fill="none" stroke="black" d="M62.34,-218.15C54.79,-209.46 46.18,-198.26 39.22,-188.22"/>
<polygon fill="black" stroke="black" points="42.07,-186.17 33.61,-179.79 36.24,-190.05 42.07,-186.17"/>
</g>
<!-- _u.3 -->
<g id="node4" class="node">
<title>_u.3</title>
<ellipse fill="none" stroke="black" cx="99" cy="-162" rx="27" ry="18"/>
<text text-anchor="middle" x="99" y="-158.3" font-family="Times,serif" font-size="14.00">_u.3</text>
</g>
<!-- 2. cliff&#45;&gt;_u.3 -->
<g id="edge5" class="edge">
<title>2. cliff&#45;&gt;_u.3</title>
<path fill="none" stroke="black" d="M78.03,-215.7C79.55,-207.37 82.25,-197.23 85.33,-188.08"/>
<polygon fill="black" stroke="black" points="88.62,-189.26 88.79,-178.67 82.05,-186.85 88.62,-189.26"/>
</g>
<!-- _u.2&#45;&gt;2. cliff -->
<g id="edge6" class="edge">
<title>_u.2&#45;&gt;2. cliff</title>
<path fill="none" stroke="black" d="M42.9,-176.97C50.6,-185.76 59.55,-197.36 66.74,-207.73"/>
<polygon fill="black" stroke="black" points="63.83,-209.68 72.29,-216.05 69.66,-205.79 63.83,-209.68"/>
</g>
<!-- _u.3&#45;&gt;2. cliff -->
<g id="edge7" class="edge">
<title>_u.3&#45;&gt;2. cliff</title>
<path fill="none" stroke="black" d="M100,-180.12C98.54,-188.24 95.93,-198.1 92.94,-207.11"/>
<polygon fill="black" stroke="black" points="89.56,-206.17 89.44,-216.76 96.14,-208.56 89.56,-206.17"/>
</g>
<!-- 3. cave entrance&#45;&gt;1. on ship -->
<g id="edge8" class="edge">
<title>3. cave entrance&#45;&gt;1. on ship</title>
<path fill="none" stroke="black" d="M191.1,-251.96C184.2,-260.98 174.59,-272.19 165.44,-281.99"/>
<polygon fill="black" stroke="black" points="162.66,-279.83 158.26,-289.46 167.71,-284.68 162.66,-279.83"/>
</g>
<!-- 4. cave -->
<g id="node6" class="node">
<title>4. cave</title>
<ellipse fill="none" stroke="black" cx="200" cy="-162" rx="36.29" ry="18"/>
<text text-anchor="middle" x="200" y="-158.3" font-family="Times,serif" font-size="14.00">4. cave</text>
</g>
<!-- 3. cave entrance&#45;&gt;4. cave -->
<g id="edge9" class="edge">
<title>3. cave entrance&#45;&gt;4. cave</title>
<path fill="none" stroke="black" d="M194.12,-216.05C193.29,-208.23 193.05,-198.75 193.41,-189.98"/>
<polygon fill="black" stroke="black" points="196.92,-190.01 194.14,-179.79 189.93,-189.51 196.92,-190.01"/>
</g>
<!-- 4. cave&#45;&gt;3. cave entrance -->
<g id="edge10" class="edge">
<title>4. cave&#45;&gt;3. cave entrance</title>
<path fill="none" stroke="black" d="M205.86,-179.79C206.7,-187.59 206.94,-197.07 206.6,-205.85"/>
<polygon fill="black" stroke="black" points="203.09,-205.83 205.88,-216.05 210.07,-206.33 203.09,-205.83"/>
</g>
<!-- _u.5 -->
<g id="node7" class="node">
<title>_u.5</title>
<ellipse fill="none" stroke="black" cx="92" cy="-90" rx="27" ry="18"/>
<text text-anchor="middle" x="92" y="-86.3" font-family="Times,serif" font-size="14.00">_u.5</text>
</g>
<!-- 4. cave&#45;&gt;_u.5 -->
<g id="edge11" class="edge">
<title>4. cave&#45;&gt;_u.5</title>
<path fill="none" stroke="black" d="M175.38,-148.49C157.68,-138.04 134.13,-122.95 116.48,-110.86"/>
<polygon fill="black" stroke="black" points="118.06,-107.69 107.86,-104.85 114.06,-113.43 118.06,-107.69"/>
</g>
<!-- _u.6 -->
<g id="node8" class="node">
<title>_u.6</title>
<ellipse fill="none" stroke="black" cx="164" cy="-90" rx="27" ry="18"/>
<text text-anchor="middle" x="164" y="-86.3" font-family="Times,serif" font-size="14.00">_u.6</text>
</g>
<!-- 4. cave&#45;&gt;_u.6 -->
<g id="edge12" class="edge">
<title>4. cave&#45;&gt;_u.6</title>
<path fill="none" stroke="black" d="M186.07,-145.12C180.94,-136.97 175.46,-126.84 171.08,-117.55"/>
<polygon fill="black" stroke="black" points="174.23,-116.02 166.98,-108.29 167.83,-118.85 174.23,-116.02"/>
</g>
<!-- _u.7 -->
<g id="node9" class="node">
<title>_u.7</title>
<ellipse fill="none" stroke="black" cx="236" cy="-90" rx="27" ry="18"/>
<text text-anchor="middle" x="236" y="-86.3" font-family="Times,serif" font-size="14.00">_u.7</text>
</g>
<!-- 4. cave&#45;&gt;_u.7 -->
<g id="edge13" class="edge">
<title>4. cave&#45;&gt;_u.7</title>
<path fill="none" stroke="black" d="M202.98,-143.7C206.62,-134.86 212.05,-123.98 217.55,-114.41"/>
<polygon fill="black" stroke="black" points="220.62,-116.11 222.8,-105.74 214.63,-112.48 220.62,-116.11"/>
</g>
<!-- 5. cave ledge -->
<g id="node10" class="node">
<title>5. cave ledge</title>
<ellipse fill="none" stroke="black" cx="339" cy="-90" rx="57.69" ry="18"/>
<text text-anchor="middle" x="339" y="-86.3" font-family="Times,serif" font-size="14.00">5. cave ledge</text>
</g>
<!-- 4. cave&#45;&gt;5. cave ledge -->
<g id="edge14" class="edge">
<title>4. cave&#45;&gt;5. cave ledge</title>
<path fill="none" stroke="black" d="M221.65,-147.34C241.74,-136.47 271.95,-121.17 296.75,-109.25"/>
<polygon fill="black" stroke="black" points="298.43,-112.33 305.95,-104.87 295.42,-106.01 298.43,-112.33"/>
</g>
<!-- _u.5&#45;&gt;4. cave -->
<g id="edge15" class="edge">
<title>_u.5&#45;&gt;4. cave</title>
<path fill="none" stroke="black" d="M113.19,-101.5C130.81,-111.74 155.67,-127.59 174.37,-140.36"/>
<polygon fill="black" stroke="black" points="172.52,-143.33 182.73,-146.15 176.51,-137.58 172.52,-143.33"/>
</g>
<!-- _u.6&#45;&gt;4. cave -->
<g id="edge16" class="edge">
<title>_u.6&#45;&gt;4. cave</title>
<path fill="none" stroke="black" d="M177.2,-105.74C182.53,-114.05 188.31,-124.69 192.9,-134.4"/>
<polygon fill="black" stroke="black" points="189.76,-135.97 197.02,-143.7 196.16,-133.14 189.76,-135.97"/>
</g>
<!-- _u.7&#45;&gt;4. cave -->
<g id="edge17" class="edge">
<title>_u.7&#45;&gt;4. cave</title>
<path fill="none" stroke="black" d="M233.02,-108.29C229.55,-116.74 224.43,-127.06 219.18,-136.32"/>
<polygon fill="black" stroke="black" points="216.05,-134.73 213.93,-145.12 222.06,-138.32 216.05,-134.73"/>
</g>
<!-- 5. cave ledge&#45;&gt;4. cave -->
<g id="edge18" class="edge">
<title>5. cave ledge&#45;&gt;4. cave</title>
<path fill="none" stroke="black" d="M314,-106.46C292.33,-118.08 260.89,-133.91 236.44,-145.53"/>
<polygon fill="black" stroke="black" points="234.68,-142.49 227.11,-149.91 237.65,-148.82 234.68,-142.49"/>
</g>
<!-- _u.9 -->
<g id="node11" class="node">
<title>_u.9</title>
<ellipse fill="none" stroke="black" cx="301" cy="-18" rx="27" ry="18"/>
<text text-anchor="middle" x="301" y="-14.3" font-family="Times,serif" font-size="14.00">_u.9</text>
</g>
<!-- 5. cave ledge&#45;&gt;_u.9 -->
<g id="edge19" class="edge">
<title>5. cave ledge&#45;&gt;_u.9</title>
<path fill="none" stroke="black" d="M324.15,-72.41C318.83,-64.25 313.15,-54.22 308.6,-45.07"/>
<polygon fill="black" stroke="black" points="311.74,-43.52 304.33,-35.96 305.4,-46.5 311.74,-43.52"/>
</g>
<!-- _u.10 -->
<g id="node12" class="node">
<title>_u.10</title>
<ellipse fill="none" stroke="black" cx="377" cy="-18" rx="30.59" ry="18"/>
<text text-anchor="middle" x="377" y="-14.3" font-family="Times,serif" font-size="14.00">_u.10</text>
</g>
<!-- 5. cave ledge&#45;&gt;_u.10 -->
<g id="edge20" class="edge">
<title>5. cave ledge&#45;&gt;_u.10</title>
<path fill="none" stroke="black" d="M342.48,-71.7C346.31,-62.98 351.94,-52.28 357.64,-42.81"/>
<polygon fill="black" stroke="black" points="360.7,-44.53 363.07,-34.2 354.77,-40.8 360.7,-44.53"/>
</g>
<!-- _u.9&#45;&gt;5. cave ledge -->
<g id="edge21" class="edge">
<title>_u.9&#45;&gt;5. cave ledge</title>
<path fill="none" stroke="black" d="M314.62,-33.74C320.18,-42.05 326.28,-52.69 331.14,-62.4"/>
<polygon fill="black" stroke="black" points="328.09,-64.15 335.52,-71.7 334.42,-61.16 328.09,-64.15"/>
</g>
<!-- _u.10&#45;&gt;5. cave ledge -->
<g id="edge22" class="edge">
<title>_u.10&#45;&gt;5. cave ledge</title>
<path fill="none" stroke="black" d="M373.67,-35.96C370.05,-44.26 364.74,-54.43 359.29,-63.63"/>
<polygon fill="black" stroke="black" points="356.14,-62.07 353.85,-72.41 362.09,-65.76 356.14,-62.07"/>
</g>
</g>
</svg>
